<svg width="56" height="49" viewBox="0 0 56 49" fill="none" xmlns="http://www.w3.org/2000/svg">
<path d="M17.637 10.4914L20.5057 8.57945V21.9657C20.5057 22.2844 20.7184 22.497 21.0371 22.497H28.5806C28.8993 22.497 29.112 22.2844 29.112 21.9657V14.2102H34.2114V21.9657C34.2114 22.2844 34.4241 22.497 34.7427 22.497H42.1794C42.4981 22.497 42.7108 22.2844 42.7108 21.9657L42.7101 8.57888L46.1102 10.8103C46.2161 10.9163 46.3229 10.9163 46.4288 10.9163C46.6415 10.9163 46.7475 10.8103 46.8535 10.7036C47.0662 10.4909 46.9594 10.1723 46.7475 9.95956L32.086 0.0794805C31.8733 -0.0264935 31.6613 -0.0264935 31.4486 0.0794805L17.1057 9.64084C16.893 9.85353 16.787 10.1722 16.9997 10.3849C17.1057 10.5976 17.4251 10.7036 17.637 10.4916L17.637 10.4914ZM31.6613 1.14197L41.6481 7.83538V21.4343H35.2733V13.6789C35.2733 13.3602 35.0606 13.1475 34.7419 13.1475H28.5799C28.2613 13.1475 28.0486 13.3602 28.0486 13.6789V21.4343H21.5678L21.5686 7.83538L31.6613 1.14197Z" fill="#03B6FF"/>
<path d="M53.9699 23.1336C52.3766 22.3895 50.5698 23.1336 48.8705 25.0456C47.7018 26.4269 46.5332 27.9143 45.3646 29.2948C43.7712 31.3136 42.1771 33.2256 40.4771 35.2442C40.0524 35.7755 39.0957 36.0942 38.3524 36.3069C35.9091 36.945 33.253 37.4763 30.597 37.9009L29.3223 38.1136C28.791 38.2196 28.1536 37.9009 27.941 37.0509C27.835 36.6263 27.835 36.4136 28.0469 36.2009C28.1529 35.9882 28.5783 35.7762 29.1097 35.6695C31.7657 35.1382 34.4217 34.6068 36.9717 33.9695L37.6091 33.8635C39.9464 33.3322 41.3279 31.5262 41.0092 29.4014C40.7965 27.5954 39.0972 26.6393 36.4412 26.8514C36.2285 26.8514 36.0165 26.8514 35.8038 26.9574H35.5911C29.9603 27.4887 23.9042 27.9134 18.1675 26.0014C17.4235 25.7887 16.5742 26.0014 15.8302 26.2141C14.1302 26.8514 12.4301 27.4887 10.6242 28.2328L9.24282 28.7642V27.9142C9.24282 26.9582 8.39279 26.1082 7.43681 26.1082H1.80601C0.850008 26.1082 0 26.9582 0 27.9142V44.5945C0 45.5505 0.850027 46.4005 1.80601 46.4005H7.43681C8.39281 46.4005 9.24282 45.5504 9.24282 44.5945V44.1698C9.34879 44.1698 9.45551 44.2758 9.56149 44.2758C9.77418 44.3818 9.98613 44.3818 10.0928 44.3818C11.6862 44.7004 13.2803 45.1258 14.8735 45.4445C17.8483 46.0818 20.8229 46.7192 23.7976 47.3565C24.329 47.4624 24.7536 47.5691 25.285 47.6751C26.4537 47.9938 27.7283 48.3125 28.897 48.3125C29.2157 48.3125 29.641 48.3125 29.9597 48.2065C33.4657 47.5691 36.9718 46.5064 40.3712 45.5504C41.2212 45.3377 42.0712 45.0191 42.9212 44.8064C43.6652 44.5937 44.5145 43.9564 45.0458 43.319C48.5518 38.5384 52.0579 33.6509 54.9259 29.6143C55.2445 29.0829 55.7759 28.3396 55.8819 27.4896C56.3073 25.4709 55.564 23.9837 53.9699 23.1335L53.9699 23.1336ZM8.17986 44.4881C8.17986 44.9128 7.86119 45.2322 7.43581 45.2322H1.80501C1.38036 45.2322 1.06096 44.9135 1.06096 44.4881L1.0617 27.8078C1.0617 27.3832 1.38036 27.0638 1.80575 27.0638H7.43655C7.86119 27.0638 8.1806 27.3824 8.1806 27.8078L8.17986 44.4881ZM54.8199 27.1706C54.7139 27.7019 54.3952 28.3393 53.9698 28.8706C51.1011 33.014 47.595 37.7947 44.0898 42.5754C43.7711 43.1067 43.1338 43.5314 42.6024 43.6381C41.7524 43.8508 40.9024 44.1695 40.0524 44.3821C36.6523 45.3382 33.253 46.4009 29.747 47.0382C28.4723 47.2509 26.9849 46.9322 25.6036 46.5068C25.0722 46.4008 24.5409 46.2941 24.1162 46.1882C21.1415 45.5508 18.1669 44.9135 15.1922 44.2762C13.5988 43.9575 12.0047 43.5321 10.4115 43.2135C10.3055 43.2135 10.0928 43.1075 9.98684 43.1075C9.77414 43.0015 9.56219 43.0015 9.3495 42.8948L9.34876 29.8265L11.1548 29.0825C12.9608 28.3384 14.6607 27.7011 16.3608 27.0637C16.9981 26.851 17.6355 26.745 17.9541 26.851C23.9034 28.8698 30.0656 28.4443 35.9091 27.9137H36.1218H36.6532C38.1405 27.8078 39.8406 28.0197 40.0533 29.6138C40.266 31.2071 39.3092 32.4825 37.5033 32.9071L36.8659 33.013C34.316 33.5444 31.6599 34.1817 29.0039 34.7131C28.1539 34.9258 27.6225 35.1377 27.3039 35.6691C26.9852 36.0937 26.9852 36.6251 27.0912 37.3691C27.4098 38.8565 28.6845 39.4938 29.7472 39.2811L31.0219 39.0684C33.5719 38.537 36.2279 38.0057 38.8839 37.4751C39.3086 37.3691 40.7959 36.9437 41.54 36.0937C43.1333 34.0749 44.8333 32.163 46.4275 30.1444C47.5961 28.763 48.7648 27.2757 49.9334 25.8951C50.8894 24.7264 52.3768 23.6636 53.7581 24.3018C54.7141 24.7272 55.1387 25.6831 54.8201 27.1705L54.8199 27.1706Z" fill="#1C1C1C"/>
</svg>
