<svg width="57" height="52" viewBox="0 0 57 52" fill="none" xmlns="http://www.w3.org/2000/svg">
<g clip-path="url(#clip0_123_514)">
<path d="M0 15.3604L22.38 3.25L44.6875 15.4375" stroke="#1C1C1C" stroke-miterlimit="10"/>
<path d="M26 40.625H4.0625V15.4375" stroke="#1C1C1C" stroke-miterlimit="10"/>
<path d="M39 21.125V13.8125" stroke="#1C1C1C" stroke-miterlimit="10"/>
<path d="M44.2307 29.5797H34.5457V30.0631H38.202C39.9082 30.0631 41.2976 31.3446 41.3707 32.9407H34.5376V33.4241H41.3463C41.1595 34.9128 39.827 36.0715 38.202 36.0715H35.3095V36.7161L40.6232 43.2847L41.0295 42.9931L35.8295 36.5626H38.202C39.1851 36.5626 40.1195 36.202 40.8182 35.542C41.4276 34.9665 41.7932 34.2299 41.8826 33.4318H44.2307V32.9484H41.8988C41.8663 32.0659 41.4845 31.2372 40.8263 30.6079C40.5988 30.3931 40.3551 30.2166 40.087 30.0708H44.2388V29.5874L44.2307 29.5797Z" fill="#03B6FF" stroke="#03B6FF" stroke-width="0.75" stroke-miterlimit="10"/>
<path d="M38.2363 22.75C30.5988 22.75 24.375 28.6204 24.375 35.8413C24.375 43.0622 30.5906 48.9172 38.2363 48.9172C45.8819 48.9172 52.0813 43.0469 52.0813 35.8413C52.0813 28.6357 45.8738 22.75 38.2363 22.75ZM38.2363 47.5206C31.4113 47.5206 25.8619 42.2795 25.8619 35.8413C25.8619 29.4031 31.4113 24.1466 38.2363 24.1466C45.0613 24.1466 50.6025 29.3877 50.6025 35.8336C50.6025 42.2718 45.0531 47.5129 38.2363 47.5129V47.5206Z" fill="#03B6FF"/>
</g>
<defs>
<clipPath id="clip0_123_514">
<rect width="56.0625" height="52" fill="white"/>
</clipPath>
</defs>
</svg>
