<svg width="150" height="64" viewBox="0 0 150 64" fill="none" xmlns="http://www.w3.org/2000/svg">
<path d="M5.67083 44.1907L0 42.01V30.2319L5.67083 32.4126V44.1907Z" fill="#00B6FF"/>
<path d="M13.5099 63.8596V56.7182H14.2501V59.8019H17.9424V56.7171H18.6831V63.8596H17.9424V60.5033H14.2501V63.8596H13.5099Z" fill="black"/>
<path d="M33.4637 56.6372C34.4764 56.633 35.4528 57.0165 36.1918 57.7089C36.5401 58.0389 36.8197 58.4342 37.015 58.8724C37.2136 59.3217 37.3161 59.8075 37.3161 60.2988C37.3161 60.79 37.2136 61.2758 37.015 61.7251C36.8186 62.1636 36.5382 62.5597 36.1901 62.8908C35.8331 63.2273 35.4159 63.4933 34.9599 63.6742C34.4832 63.8664 33.9733 63.9631 33.4593 63.9593C32.448 63.9661 31.4738 63.5803 30.7411 62.8832C30.3932 62.5508 30.1116 62.1552 29.9119 61.7175C29.7105 61.2688 29.6064 60.7823 29.6064 60.2906C29.6064 59.7989 29.7105 59.3129 29.9119 58.8643C30.1106 58.4266 30.3924 58.0315 30.7411 57.7008C31.097 57.3666 31.5112 57.1014 31.9637 56.918C32.4404 56.7266 32.95 56.6312 33.4637 56.6372ZM33.4637 63.2601C33.8766 63.2628 34.2861 63.1829 34.6677 63.0252C35.0342 62.8744 35.3704 62.6576 35.6592 62.386C35.9418 62.1193 36.1693 61.8004 36.33 61.4465C36.4916 61.0868 36.5752 60.6969 36.5752 60.3026C36.5752 59.9082 36.4916 59.5184 36.33 59.1587C36.1693 58.8049 35.9418 58.4858 35.6592 58.2191C35.3711 57.947 35.0352 57.7297 34.6687 57.5789C34.2873 57.4206 33.8783 57.3405 33.4654 57.3429C33.0539 57.3393 32.6457 57.4188 32.2657 57.5767C31.9007 57.728 31.5665 57.9442 31.2792 58.2153C30.9964 58.4819 30.7683 58.8015 30.6078 59.1555C30.4457 59.5151 30.3619 59.905 30.3619 60.2993C30.3619 60.6938 30.4457 61.0836 30.6078 61.4432C30.7682 61.7976 30.9964 62.117 31.2792 62.3839C31.5666 62.6544 31.9004 62.8711 32.2646 63.0231C32.6433 63.1815 33.0499 63.2621 33.4605 63.2601H33.4637Z" fill="black"/>
<path d="M48.2371 63.8781V56.7373H48.9499L51.4939 62.7861L54.045 56.7394H54.7573V63.8804H54.0166V58.7344C53.6519 59.5929 53.2857 60.4538 52.9181 61.3183C52.5503 62.1828 52.1903 63.0375 51.8375 63.8825H51.1514L48.9778 58.7366V63.8825L48.2371 63.8781Z" fill="black"/>
<path d="M66.0647 63.8878V56.7458H69.7564V57.4494H66.8022V59.83H69.2014V60.5353H66.8022V63.1842H69.7575V63.8878H66.0647Z" fill="black"/>
<path d="M98.512 63.2013V63.9054H94.8197V56.764H95.5604V63.2024L98.512 63.2013Z" fill="black"/>
<path d="M111.881 56.6778C112.893 56.6741 113.869 57.0575 114.608 57.7496C114.956 58.0794 115.236 58.4744 115.431 58.9121C115.63 59.3614 115.733 59.8472 115.733 60.3384C115.733 60.8297 115.63 61.3154 115.431 61.7647C115.235 62.203 114.954 62.599 114.606 62.9305C114.249 63.2672 113.832 63.5331 113.375 63.7138C112.898 63.906 112.389 64.0031 111.874 64C111.362 64.0027 110.854 63.9048 110.38 63.7116C109.926 63.5301 109.511 63.2642 109.156 62.9282C108.808 62.5962 108.527 62.2 108.329 61.7615C108.127 61.313 108.023 60.8269 108.023 60.3352C108.023 59.8434 108.127 59.3573 108.329 58.9089C108.528 58.4713 108.81 58.0765 109.159 57.7464C109.895 57.055 110.868 56.6725 111.877 56.6778H111.881ZM111.881 63.3008C112.294 63.3035 112.703 63.2236 113.085 63.0659C113.452 62.9148 113.788 62.6987 114.077 62.4274C114.36 62.1606 114.587 61.841 114.748 61.4872C114.91 61.1276 114.994 60.7377 114.994 60.3433C114.994 59.9489 114.91 59.559 114.748 59.1994C114.588 58.8454 114.36 58.5264 114.077 58.2599C113.788 57.988 113.453 57.7714 113.086 57.6202C112.316 57.3063 111.453 57.3063 110.683 57.6202C110.318 57.7719 109.985 57.9881 109.697 58.2587C109.415 58.5255 109.187 58.8445 109.026 59.1983C108.864 59.558 108.78 59.9478 108.78 60.3422C108.78 60.7367 108.864 61.1265 109.026 61.4861C109.186 61.8405 109.414 62.1604 109.697 62.4274C109.985 62.6983 110.318 62.9148 110.683 63.0671C111.061 63.2238 111.468 63.303 111.877 63.2998L111.881 63.3008Z" fill="black"/>
<path d="M128.773 56.7795L131.697 63.923H130.882L129.882 61.4615H127.382C127.226 61.8628 127.067 62.2707 126.904 62.6846C126.74 63.0986 126.582 63.5089 126.426 63.9154H125.621L128.418 56.7751L128.773 56.7795ZM127.655 60.7623H129.609C129.523 60.5587 129.439 60.3599 129.359 60.1652C129.28 59.9705 129.198 59.776 129.119 59.5824C129.04 59.3889 128.957 59.1873 128.874 58.9837C128.791 58.7801 128.703 58.564 128.61 58.3347L127.655 60.7623Z" fill="black"/>
<path d="M142.452 63.9276V56.7862H143.081L146.637 60.2982V56.7873H147.377V63.9287H146.637V61.3071L143.192 57.9241V63.9266L142.452 63.9276Z" fill="black"/>
<path d="M102.943 0.497345H112.287V45.7154H102.943V0.497345Z" fill="black"/>
<path d="M24.4604 1.35736C29.2122 1.35736 32.9935 2.28252 35.8054 4.13295C37.1741 5.01747 38.2853 6.24771 39.0256 7.69955C39.7659 9.1514 40.1089 10.7735 40.0209 12.4008C40.0903 14.3673 39.6186 16.3147 38.6563 18.0311C37.6942 19.7477 36.2786 21.1668 34.5648 22.1336C36.7365 23.067 38.6512 24.5111 40.1455 26.3426C41.5001 28.0462 42.2227 30.166 42.1913 32.3423C42.2569 34.4414 41.799 36.5237 40.8589 38.4015C40.008 40.0109 38.773 41.3853 37.2634 42.4025C35.7042 43.4388 33.9721 44.187 32.1486 44.611C30.2193 45.0722 28.2419 45.3025 26.2582 45.2977H11.0686V1.36064L24.4604 1.35736ZM25.5131 19.3258C26.2443 19.386 26.9795 19.2769 27.6621 19.0079C28.3447 18.7389 28.9564 18.3168 29.45 17.7738C30.2795 16.7886 30.7301 15.54 30.7217 14.2521C30.7641 13.5977 30.6414 12.9429 30.3651 12.3483C30.0886 11.7537 29.6673 11.2382 29.1398 10.8488C27.8771 10.0336 26.3897 9.63682 24.8887 9.71529H20.0537V19.3258H25.5131ZM25.8239 37.2348C27.5704 37.2914 29.3017 36.8902 30.8452 36.0712C31.5049 35.7071 32.0469 35.1634 32.4092 34.5029C32.7714 33.8423 32.9386 33.092 32.891 32.3402C32.9284 31.805 32.8478 31.2684 32.6545 30.768C32.4611 30.2676 32.1598 29.8158 31.7723 29.445C30.9449 28.7476 29.9525 28.2749 28.8895 28.0721C27.6767 27.8091 26.4384 27.6783 25.1973 27.6827H20.0514V37.2348H25.8239Z" fill="black"/>
<path d="M99.7206 11.4371C97.9507 10.5097 96.1077 9.72887 94.2104 9.10233C92.5197 8.519 90.7472 8.20847 88.959 8.18186C87.2893 8.09143 85.6305 8.49742 84.1912 9.34869C83.621 9.73025 83.1604 10.254 82.855 10.8684C82.5496 11.4828 82.41 12.1665 82.4503 12.8514C82.4571 13.3937 82.5782 13.9281 82.8058 14.4202C83.0335 14.9125 83.3629 15.3509 83.7717 15.7073C84.7826 16.6319 85.9356 17.3874 87.187 17.9448C88.5824 18.6004 90.0326 19.1944 91.5369 19.7262C93.3939 20.3866 95.1844 21.2202 96.8854 22.2155C98.6113 23.2281 100.07 24.6397 101.137 26.3322C102.346 28.4277 102.929 30.8264 102.815 33.2431C102.823 35.5087 102.173 37.7277 100.946 39.6323C99.5919 41.6935 97.6951 43.3409 95.4646 44.3935C92.6819 45.6822 89.6369 46.3029 86.5718 46.206C83.7721 46.1925 80.9873 45.7997 78.2931 45.0382C75.4571 44.2511 72.7684 43.0059 70.334 41.352L74.4589 34.4099C76.1881 35.6063 78.075 36.5572 80.0652 37.2358C81.8802 37.9183 83.7966 38.2921 85.735 38.3415C86.8781 38.3378 88.0156 38.1826 89.118 37.8804C90.1835 37.6138 91.1612 37.074 91.9543 36.3143C92.3426 35.9067 92.643 35.4235 92.837 34.895C93.031 34.3665 93.1142 33.804 93.0818 33.2421C93.058 32.5321 92.8609 31.8389 92.507 31.223C92.1533 30.607 91.6537 30.0869 91.0523 29.7088C89.5597 28.6323 87.9212 27.7741 86.1867 27.1592C84.7264 26.6275 83.223 26.013 81.6762 25.3156C80.1386 24.6256 78.6799 23.7707 77.3262 22.7668C75.9757 21.7667 74.8552 20.4885 74.0404 19.0188C73.1551 17.3247 72.7222 15.431 72.784 13.5205C72.7237 11.116 73.3618 8.74538 74.6211 6.69601C75.8987 4.72424 77.6934 3.14074 79.809 2.11881C82.2228 0.948096 84.8594 0.309284 87.5414 0.245106C90.6959 0.146689 93.8445 0.582998 96.8532 1.53594C99.0943 2.32731 101.244 3.35738 103.265 4.60817L99.7206 11.4371Z" fill="black"/>
<path d="M149.787 41.9676C148.883 42.6062 147.923 43.1611 146.92 43.6255C145.278 44.4111 143.562 45.0284 141.797 45.4681C139.607 46.0193 137.352 46.267 135.095 46.205C131.664 46.1838 128.266 45.5276 125.075 44.2696C122.269 43.1536 119.725 41.4702 117.6 39.3248C115.577 37.2652 113.989 34.8213 112.928 32.1369C111.843 29.3786 111.296 26.4381 111.317 23.4741C111.232 19.2386 112.23 15.0516 114.217 11.3099C116.091 7.84841 118.891 4.97673 122.305 3.01637C125.991 0.951167 130.163 -0.0883298 134.387 0.00587922C137.248 -0.0405819 140.098 0.375079 142.828 1.23662C144.916 1.89562 146.926 2.78155 148.821 3.87894L145.148 12.2953C143.796 11.3589 142.362 10.5467 140.863 9.86878C138.929 8.99834 136.828 8.56844 134.709 8.61018C132.331 8.6017 129.997 9.26085 127.976 10.5123C125.897 11.775 124.168 13.5387 122.949 15.6418C121.66 17.8712 121.002 20.4094 121.047 22.9841C120.988 25.6384 121.585 28.2659 122.788 30.6331C123.91 32.7868 125.634 34.5687 127.75 35.7625C130.055 37.0307 132.658 37.6664 135.289 37.6051C137.515 37.6626 139.729 37.2656 141.798 36.4382C143.296 35.8451 144.689 35.0143 145.923 33.9773L149.787 41.9676Z" fill="black"/>
<path d="M58.3383 0.103394H56.5597L35.7965 45.7143H45.0115L48.8781 36.8669H64.6014L68.2739 45.7143H79.0993L58.3383 0.103394ZM52.1639 29.3725L56.9334 18.375L61.5078 29.3725H52.1639Z" fill="black"/>
</svg>
