<svg xmlns="http://www.w3.org/2000/svg" viewBox="0 0 114.84 119.59"><defs><style>.cls-1{fill:#00b6ff;}</style></defs><g id="Layer_2" data-name="Layer 2"><g id="Layer_1-2" data-name="Layer 1"><polygon class="cls-1" points="15.44 116.58 0 110.64 0 78.59 15.44 84.53 15.44 116.58"/><path d="M66.58,0Q86,0,97.46,7.56t11.47,22.5a30.26,30.26,0,0,1-4,15.76A30.25,30.25,0,0,1,94.08,56.54,40.11,40.11,0,0,1,109.27,68a25.66,25.66,0,0,1,5.57,16.33q0,9.75-3.63,16.49a30,30,0,0,1-9.79,10.89,42.53,42.53,0,0,1-13.92,6,68,68,0,0,1-16,1.87H30.13V0Zm2.87,48.91q7.24,0,10.71-4.23a14.74,14.74,0,0,0,3.46-9.58q0-6.18-4.3-9.27T67.76,22.75H54.6V48.91Zm.84,48.74A27.21,27.21,0,0,0,84,94.48q5.57-3.17,5.57-10.15c0-3.47-1-6.09-3-7.88a17.23,17.23,0,0,0-7.85-3.74,46.89,46.89,0,0,0-10-1h-14v26Z"/></g></g></svg>