<svg width="150" height="64" viewBox="0 0 150 64" fill="none" xmlns="http://www.w3.org/2000/svg">
<path d="M5.67083 44.1907L0 42.01V30.2319L5.67083 32.4126V44.1907Z" fill="#00B6FF"/>
<path d="M13.5099 63.8598V56.7184H14.2501V59.802H17.9424V56.7173H18.6831V63.8598H17.9424V60.5035H14.2501V63.8598H13.5099Z" fill="white"/>
<path d="M33.4637 56.637C34.4764 56.6328 35.4528 57.0164 36.1918 57.7088C36.5401 58.0387 36.8197 58.434 37.015 58.8723C37.2136 59.3216 37.3161 59.8073 37.3161 60.2986C37.3161 60.7898 37.2136 61.2756 37.015 61.7249C36.8186 62.1634 36.5382 62.5595 36.1901 62.8906C35.8331 63.2272 35.4159 63.4931 34.9599 63.674C34.4832 63.8662 33.9733 63.963 33.4593 63.9592C32.448 63.9659 31.4738 63.5801 30.7411 62.883C30.3932 62.5506 30.1116 62.155 29.9119 61.7173C29.7105 61.2687 29.6064 60.7821 29.6064 60.2904C29.6064 59.7987 29.7105 59.3127 29.9119 58.8641C30.1106 58.4264 30.3924 58.0313 30.7411 57.7006C31.097 57.3664 31.5112 57.1013 31.9637 56.9178C32.4404 56.7264 32.95 56.631 33.4637 56.637ZM33.4637 63.2599C33.8766 63.2626 34.2861 63.1827 34.6677 63.025C35.0342 62.8742 35.3704 62.6574 35.6592 62.3858C35.9418 62.1191 36.1693 61.8002 36.33 61.4463C36.4916 61.0866 36.5752 60.6967 36.5752 60.3024C36.5752 59.908 36.4916 59.5182 36.33 59.1586C36.1693 58.8047 35.9418 58.4856 35.6592 58.2189C35.3711 57.9468 35.0352 57.7296 34.6687 57.5788C34.2873 57.4204 33.8783 57.3403 33.4654 57.3427C33.0539 57.3391 32.6457 57.4187 32.2657 57.5765C31.9007 57.7278 31.5665 57.944 31.2792 58.2151C30.9964 58.4817 30.7683 58.8013 30.6078 59.1553C30.4457 59.5149 30.3619 59.9048 30.3619 60.2991C30.3619 60.6936 30.4457 61.0834 30.6078 61.4431C30.7682 61.7974 30.9964 62.1168 31.2792 62.3837C31.5666 62.6542 31.9004 62.8709 32.2646 63.0229C32.6433 63.1813 33.0499 63.2619 33.4605 63.2599H33.4637Z" fill="white"/>
<path d="M48.2371 63.8781V56.7373H48.9499L51.4939 62.7861L54.045 56.7394H54.7573V63.8804H54.0166V58.7344C53.6519 59.5929 53.2857 60.4538 52.9181 61.3183C52.5503 62.1828 52.1903 63.0375 51.8375 63.8825H51.1514L48.9778 58.7366V63.8825L48.2371 63.8781Z" fill="white"/>
<path d="M66.0647 63.888V56.7461H69.7564V57.4497H66.8022V59.8303H69.2014V60.5356H66.8022V63.1844H69.7575V63.888H66.0647Z" fill="white"/>
<path d="M98.5119 63.2014V63.9055H94.8197V56.7642H95.5604V63.2025L98.5119 63.2014Z" fill="white"/>
<path d="M111.881 56.6778C112.893 56.6741 113.869 57.0575 114.608 57.7496C114.956 58.0794 115.236 58.4744 115.431 58.9121C115.63 59.3614 115.733 59.8471 115.733 60.3384C115.733 60.8296 115.63 61.3154 115.431 61.7647C115.235 62.203 114.954 62.5989 114.606 62.9304C114.249 63.2672 113.832 63.5331 113.375 63.7138C112.898 63.906 112.389 64.0031 111.874 64C111.362 64.0027 110.854 63.9048 110.38 63.7116C109.926 63.5301 109.511 63.2642 109.156 62.9282C108.808 62.5961 108.527 62.2 108.329 61.7614C108.127 61.3129 108.023 60.8268 108.023 60.3351C108.023 59.8433 108.127 59.3572 108.329 58.9088C108.528 58.4713 108.81 58.0765 109.159 57.7463C109.895 57.0549 110.868 56.6724 111.877 56.6778H111.881ZM111.881 63.3007C112.294 63.3034 112.703 63.2235 113.085 63.0659C113.452 62.9148 113.788 62.6986 114.077 62.4273C114.36 62.1606 114.587 61.841 114.748 61.4871C114.91 61.1276 114.994 60.7377 114.994 60.3433C114.994 59.9488 114.91 59.5589 114.748 59.1994C114.588 58.8454 114.36 58.5263 114.077 58.2598C113.788 57.988 113.453 57.7714 113.086 57.6201C112.316 57.3063 111.453 57.3063 110.683 57.6201C110.318 57.7718 109.985 57.9881 109.697 58.2587C109.415 58.5254 109.187 58.8445 109.026 59.1982C108.864 59.5579 108.78 59.9478 108.78 60.3422C108.78 60.7367 108.864 61.1264 109.026 61.4861C109.186 61.8404 109.414 62.1604 109.697 62.4273C109.985 62.6983 110.318 62.9148 110.683 63.067C111.061 63.2238 111.468 63.303 111.877 63.2997L111.881 63.3007Z" fill="white"/>
<path d="M128.773 56.7793L131.697 63.9228H130.882L129.882 61.4613H127.382C127.226 61.8626 127.067 62.2705 126.904 62.6844C126.74 63.0984 126.582 63.5087 126.426 63.9152H125.621L128.418 56.7749L128.773 56.7793ZM127.655 60.7621H129.609C129.523 60.5584 129.439 60.3596 129.359 60.165C129.28 59.9703 129.198 59.7758 129.119 59.5822C129.04 59.3887 128.957 59.1871 128.874 58.9835C128.791 58.7798 128.703 58.5638 128.61 58.3345L127.655 60.7621Z" fill="white"/>
<path d="M142.452 63.9275V56.7861H143.081L146.637 60.2981V56.7873H147.377V63.9286H146.637V61.307L143.192 57.924V63.9265L142.452 63.9275Z" fill="white"/>
<path d="M102.943 0.497559H112.287V45.7156H102.943V0.497559Z" fill="white"/>
<path d="M24.4604 1.35742C29.2122 1.35742 32.9935 2.28258 35.8054 4.13301C37.1741 5.01753 38.2853 6.24777 39.0256 7.69961C39.7659 9.15146 40.1089 10.7735 40.0209 12.4008C40.0903 14.3674 39.6186 16.3148 38.6563 18.0312C37.6942 19.7477 36.2786 21.1669 34.5648 22.1337C36.7365 23.0671 38.6512 24.5112 40.1455 26.3427C41.5001 28.0462 42.2227 30.1661 42.1913 32.3424C42.2569 34.4414 41.799 36.5238 40.8589 38.4016C40.008 40.0109 38.773 41.3853 37.2634 42.4025C35.7042 43.4388 33.9721 44.187 32.1486 44.6111C30.2193 45.0722 28.2419 45.3026 26.2582 45.2978H11.0686V1.3607L24.4604 1.35742ZM25.5131 19.3258C26.2443 19.386 26.9795 19.2769 27.6621 19.008C28.3447 18.7389 28.9564 18.3168 29.45 17.7739C30.2795 16.7887 30.7301 15.5401 30.7217 14.2521C30.7641 13.5978 30.6414 12.943 30.3651 12.3483C30.0886 11.7537 29.6673 11.2383 29.1398 10.8489C27.8771 10.0336 26.3897 9.63688 24.8887 9.71535H20.0537V19.3258H25.5131ZM25.8239 37.2348C27.5704 37.2915 29.3017 36.8903 30.8452 36.0712C31.5049 35.7072 32.0469 35.1635 32.4092 34.5029C32.7714 33.8423 32.9386 33.0921 32.891 32.3403C32.9284 31.8051 32.8478 31.2685 32.6545 30.7681C32.4611 30.2677 32.1598 29.8159 31.7723 29.445C30.9449 28.7477 29.9525 28.2749 28.8895 28.0722C27.6767 27.8092 26.4384 27.6784 25.1973 27.6828H20.0514V37.2348H25.8239Z" fill="white"/>
<path d="M99.7206 11.437C97.9507 10.5096 96.1077 9.72881 94.2104 9.10227C92.5197 8.51894 90.7472 8.20841 88.959 8.1818C87.2893 8.09137 85.6305 8.49736 84.1912 9.34863C83.621 9.73019 83.1604 10.2539 82.855 10.8684C82.5496 11.4828 82.41 12.1664 82.4503 12.8513C82.4571 13.3936 82.5782 13.928 82.8058 14.4202C83.0335 14.9124 83.3629 15.3509 83.7717 15.7072C84.7826 16.6319 85.9356 17.3874 87.187 17.9447C88.5824 18.6003 90.0326 19.1944 91.5369 19.7261C93.3939 20.3865 95.1844 21.2201 96.8854 22.2155C98.6113 23.2281 100.07 24.6396 101.137 26.3322C102.346 28.4276 102.929 30.8264 102.815 33.243C102.823 35.5086 102.173 37.7277 100.946 39.6322C99.5919 41.6934 97.6951 43.3408 95.4646 44.3935C92.6819 45.6822 89.6369 46.3029 86.5718 46.206C83.7721 46.1924 80.9873 45.7996 78.2931 45.0381C75.4571 44.251 72.7684 43.0059 70.334 41.3519L74.4589 34.4099C76.1881 35.6063 78.075 36.5571 80.0652 37.2357C81.8802 37.9182 83.7966 38.2921 85.735 38.3414C86.8781 38.3377 88.0156 38.1826 89.118 37.8804C90.1835 37.6138 91.1612 37.074 91.9543 36.3142C92.3426 35.9067 92.643 35.4235 92.837 34.895C93.031 34.3665 93.1142 33.8039 93.0818 33.242C93.058 32.532 92.8609 31.8388 92.507 31.223C92.1533 30.607 91.6537 30.0869 91.0523 29.7087C89.5597 28.6322 87.9212 27.774 86.1867 27.1592C84.7264 26.6274 83.223 26.0129 81.6762 25.3156C80.1386 24.6255 78.6799 23.7707 77.3262 22.7667C75.9757 21.7666 74.8552 20.4884 74.0404 19.0187C73.1551 17.3246 72.7222 15.431 72.784 13.5205C72.7237 11.1159 73.3618 8.74532 74.6211 6.69595C75.8987 4.72418 77.6934 3.14068 79.809 2.11875C82.2228 0.948035 84.8594 0.309223 87.5414 0.245045C90.6959 0.146627 93.8445 0.582936 96.8532 1.53588C99.0943 2.32725 101.244 3.35732 103.265 4.60811L99.7206 11.437Z" fill="white"/>
<path d="M149.787 41.9676C148.883 42.6062 147.923 43.1611 146.92 43.6255C145.278 44.4111 143.562 45.0284 141.797 45.4681C139.607 46.0193 137.352 46.267 135.095 46.205C131.664 46.1838 128.266 45.5276 125.075 44.2696C122.269 43.1536 119.725 41.4702 117.6 39.3248C115.577 37.2652 113.989 34.8213 112.928 32.1369C111.843 29.3786 111.296 26.4381 111.317 23.4741C111.232 19.2386 112.23 15.0516 114.217 11.3099C116.091 7.84841 118.891 4.97673 122.305 3.01637C125.991 0.951167 130.163 -0.0883298 134.387 0.00587922C137.248 -0.0405819 140.098 0.375079 142.828 1.23662C144.916 1.89562 146.926 2.78155 148.821 3.87894L145.148 12.2953C143.796 11.3589 142.362 10.5467 140.863 9.86878C138.929 8.99834 136.828 8.56844 134.709 8.61018C132.331 8.6017 129.997 9.26085 127.976 10.5123C125.897 11.775 124.168 13.5387 122.949 15.6418C121.66 17.8712 121.002 20.4094 121.047 22.9841C120.988 25.6384 121.585 28.2659 122.788 30.6331C123.91 32.7868 125.634 34.5687 127.75 35.7625C130.055 37.0307 132.658 37.6664 135.289 37.6051C137.515 37.6626 139.729 37.2656 141.798 36.4382C143.296 35.8451 144.689 35.0143 145.923 33.9773L149.787 41.9676Z" fill="white"/>
<path d="M58.3383 0.103516H56.5597L35.7965 45.7144H45.0115L48.8781 36.867H64.6014L68.2739 45.7144H79.0993L58.3383 0.103516ZM52.1639 29.3726L56.9334 18.3751L61.5078 29.3726H52.1639Z" fill="white"/>
</svg>
