<svg width="126" height="54" viewBox="0 0 126 54" fill="none" xmlns="http://www.w3.org/2000/svg">
<path d="M4.77028 37.3358L0 35.5014V25.5938L4.77028 27.4281V37.3358Z" fill="#00B6FF"/>
<path d="M11.366 53.8813V47.874H11.9886V50.4679H15.0945V47.873H15.7176V53.8813H15.0945V51.058H11.9886V53.8813H11.366Z" fill="black"/>
<path d="M28.1487 47.8059C29.0006 47.8024 29.8219 48.125 30.4436 48.7075C30.7365 48.985 30.9717 49.3176 31.136 49.6862C31.3031 50.0641 31.3893 50.4728 31.3893 50.886C31.3893 51.2992 31.3031 51.7079 31.136 52.0858C30.9709 52.4547 30.7349 52.7879 30.4422 53.0664C30.1419 53.3495 29.7909 53.5732 29.4073 53.7254C29.0063 53.8871 28.5774 53.9685 28.145 53.9653C27.2943 53.9709 26.4748 53.6464 25.8585 53.06C25.5658 52.7804 25.3289 52.4477 25.1609 52.0794C24.9915 51.702 24.904 51.2927 24.904 50.8791C24.904 50.4655 24.9915 50.0567 25.1609 49.6793C25.3281 49.3112 25.5651 48.9788 25.8585 48.7006C26.1578 48.4195 26.5063 48.1964 26.8869 48.0421C27.2879 47.8811 27.7166 47.8009 28.1487 47.8059ZM28.1487 53.3771C28.4961 53.3793 28.8405 53.3121 29.1615 53.1795C29.4698 53.0526 29.7526 52.8702 29.9955 52.6418C30.2332 52.4174 30.4247 52.1491 30.5598 51.8515C30.6958 51.5489 30.7661 51.2209 30.7661 50.8892C30.7661 50.5575 30.6958 50.2296 30.5598 49.927C30.4247 49.6294 30.2332 49.361 29.9955 49.1366C29.7532 48.9077 29.4707 48.725 29.1624 48.5981C28.8415 48.4649 28.4975 48.3975 28.1501 48.3995C27.804 48.3965 27.4606 48.4634 27.141 48.5962C26.8339 48.7235 26.5528 48.9054 26.3111 49.1334C26.0732 49.3577 25.8813 49.6265 25.7464 49.9243C25.61 50.2268 25.5395 50.5547 25.5395 50.8865C25.5395 51.2183 25.61 51.5462 25.7464 51.8487C25.8812 52.1468 26.0732 52.4155 26.3111 52.64C26.5529 52.8676 26.8336 53.0499 27.14 53.1777C27.4586 53.3109 27.8006 53.3788 28.146 53.3771H28.1487Z" fill="black"/>
<path d="M40.5778 53.8975V47.8906H41.1775L43.3174 52.9789L45.4634 47.8924H46.0626V53.8993H45.4395V49.5706C45.1327 50.2928 44.8247 51.0169 44.5155 51.7441C44.2061 52.4713 43.9033 53.1903 43.6065 53.9011H43.0294L41.2009 49.5725V53.9011L40.5778 53.8975Z" fill="black"/>
<path d="M55.5748 53.9052V47.8975H58.6802V48.4893H56.1951V50.4919H58.2133V51.0851H56.1951V53.3134H58.6811V53.9052H55.5748Z" fill="black"/>
<path d="M82.8683 53.3281V53.9204H79.7624V47.9131H80.3855V53.329L82.8683 53.3281Z" fill="black"/>
<path d="M94.114 47.8399C94.9656 47.8368 95.7863 48.1593 96.4083 48.7415C96.701 49.0189 96.9363 49.3512 97.1001 49.7194C97.2676 50.0973 97.3541 50.5059 97.3541 50.9192C97.3541 51.3324 97.2676 51.741 97.1001 52.119C96.9354 52.4877 96.6992 52.8207 96.4065 53.0996C96.1063 53.3829 95.7552 53.6066 95.3713 53.7585C94.9694 53.9202 94.5412 54.0019 94.1084 53.9993C93.6774 54.0015 93.2503 53.9192 92.8511 53.7567C92.4698 53.604 92.1204 53.3803 91.8223 53.0977C91.5291 52.8184 91.2929 52.4851 91.1261 52.1162C90.9565 51.7389 90.8688 51.33 90.8688 50.9164C90.8688 50.5027 90.9565 50.0938 91.1261 49.7166C91.2935 49.3486 91.5307 49.0165 91.8245 48.7387C92.4435 48.1571 93.2618 47.8354 94.1111 47.8399H94.114ZM94.114 53.4111C94.4612 53.4133 94.8057 53.3462 95.1266 53.2136C95.4353 53.0864 95.7185 52.9046 95.9613 52.6764C96.1994 52.452 96.3905 52.1831 96.526 51.8855C96.6624 51.583 96.733 51.255 96.733 50.9233C96.733 50.5915 96.6624 50.2635 96.526 49.961C96.3914 49.6633 96.1994 49.3949 95.9613 49.1707C95.7185 48.942 95.4362 48.7598 95.1275 48.6326C94.48 48.3686 93.7542 48.3686 93.1061 48.6326C92.7996 48.7602 92.5189 48.9421 92.2772 49.1698C92.0395 49.3941 91.8476 49.6625 91.7125 49.9601C91.5761 50.2626 91.5056 50.5906 91.5056 50.9224C91.5056 51.2542 91.5761 51.5821 91.7125 51.8846C91.8473 52.1827 92.0392 52.4518 92.2772 52.6764C92.5189 52.9043 92.7996 53.0864 93.1061 53.2145C93.4247 53.3463 93.7664 53.413 94.1111 53.4102L94.114 53.4111Z" fill="black"/>
<path d="M108.324 47.9255L110.783 53.9346H110.098L109.257 51.864H107.153C107.022 52.2016 106.889 52.5447 106.751 52.8929C106.614 53.2411 106.48 53.5863 106.349 53.9282H105.672L108.025 47.9219L108.324 47.9255ZM107.383 51.2758H109.027C108.954 51.1046 108.884 50.9373 108.817 50.7736C108.75 50.6098 108.682 50.4462 108.615 50.2834C108.548 50.1206 108.478 49.951 108.409 49.7797C108.339 49.6084 108.265 49.4267 108.186 49.2338L107.383 51.2758Z" fill="black"/>
<path d="M119.831 53.9389V47.9316H120.361L123.352 50.8859V47.9326H123.975V53.9399H123.352V51.7346L120.454 48.8888V53.9381L119.831 53.9389Z" fill="black"/>
<path d="M86.5938 0.581055H94.4542V38.6182H86.5938V0.581055Z" fill="black"/>
<path d="M20.5774 1.30469C24.5746 1.30469 27.7554 2.08293 30.1208 3.6395C31.2721 4.38355 32.2069 5.41843 32.8296 6.63971C33.4524 7.861 33.7409 9.22546 33.6668 10.5943C33.7253 12.2486 33.3284 13.8868 32.519 15.3306C31.7096 16.7745 30.5189 17.9683 29.0772 18.7816C30.9041 19.5667 32.5146 20.7815 33.7717 22.3222C34.9111 23.7552 35.519 25.5384 35.4926 27.3691C35.5478 29.1348 35.1626 30.8864 34.3718 32.4661C33.656 33.8198 32.6171 34.976 31.3472 35.8316C30.0357 36.7034 28.5786 37.3328 27.0447 37.6894C25.4218 38.0774 23.7584 38.2711 22.0897 38.2671H9.31232V1.30744L20.5774 1.30469ZM21.463 16.4196C22.0781 16.4703 22.6965 16.3785 23.2707 16.1523C23.8449 15.9259 24.3595 15.5709 24.7747 15.1141C25.4724 14.2854 25.8515 13.2351 25.8444 12.1517C25.8801 11.6012 25.7769 11.0504 25.5444 10.5502C25.3119 10.05 24.9575 9.61644 24.5137 9.28884C23.4515 8.60308 22.2003 8.26933 20.9377 8.33534H16.8705V16.4196H21.463ZM21.7244 31.4846C23.1936 31.5322 24.6499 31.1947 25.9483 30.5058C26.5032 30.1995 26.9592 29.7422 27.2639 29.1865C27.5686 28.6308 27.7092 27.9997 27.6692 27.3673C27.7007 26.9171 27.6329 26.4657 27.4703 26.0448C27.3076 25.6238 27.0541 25.2438 26.7281 24.9318C26.0322 24.3453 25.1973 23.9476 24.3032 23.777C23.283 23.5558 22.2414 23.4458 21.1973 23.4494H16.8686V31.4846H21.7244Z" fill="black"/>
<path d="M83.8828 9.78348C82.394 9.00337 80.8437 8.34656 79.2477 7.81952C77.8255 7.32882 76.3345 7.06761 74.8302 7.04522C73.4257 6.96915 72.0303 7.31067 70.8196 8.02676C70.3399 8.34772 69.9524 8.78829 69.6956 9.30514C69.4387 9.82197 69.3213 10.3971 69.3551 10.9732C69.3609 11.4294 69.4627 11.8789 69.6542 12.2929C69.8457 12.707 70.1228 13.0758 70.4667 13.3756C71.317 14.1534 72.2869 14.7889 73.3396 15.2577C74.5135 15.8092 75.7333 16.309 76.9987 16.7563C78.5608 17.3118 80.067 18.013 81.4979 18.8503C82.9497 19.7021 84.1764 20.8895 85.0744 22.3132C86.0914 24.0759 86.5813 26.0937 86.486 28.1266C86.4923 30.0324 85.9461 31.8991 84.914 33.5012C83.7746 35.2351 82.179 36.6208 80.3027 37.5063C77.9619 38.5904 75.4005 39.1125 72.8221 39.031C70.467 39.0196 68.1245 38.6892 65.8581 38.0486C63.4725 37.3865 61.2108 36.3391 59.163 34.9477L62.6328 29.1081C64.0874 30.1146 65.6747 30.9144 67.3488 31.4853C68.8756 32.0593 70.4876 32.3738 72.1182 32.4154C73.0798 32.4122 74.0366 32.2817 74.964 32.0275C75.8603 31.8033 76.6827 31.3492 77.3498 30.7101C77.6765 30.3672 77.9292 29.9608 78.0924 29.5162C78.2556 29.0716 78.3256 28.5984 78.2983 28.1257C78.2783 27.5285 78.1125 26.9454 77.8148 26.4273C77.5173 25.9092 77.097 25.4717 76.5911 25.1536C75.3355 24.248 73.9573 23.5261 72.4982 23.0089C71.2698 22.5616 70.0052 22.0447 68.704 21.4581C67.4105 20.8776 66.1835 20.1585 65.0448 19.314C63.9087 18.4727 62.9662 17.3975 62.2808 16.1612C61.536 14.7361 61.1719 13.1432 61.2239 11.5361C61.1731 9.5134 61.71 7.51925 62.7692 5.79533C63.844 4.13669 65.3537 2.80466 67.1333 1.94501C69.1638 0.960214 71.3817 0.422848 73.6378 0.368862C76.2913 0.286074 78.9399 0.653095 81.4708 1.4547C83.356 2.12041 85.1641 2.98689 86.8641 4.03905L83.8828 9.78348Z" fill="black"/>
<path d="M126.001 35.466C125.24 36.0032 124.433 36.47 123.589 36.8606C122.208 37.5215 120.764 38.0408 119.279 38.4106C117.438 38.8743 115.54 39.0827 113.642 39.0305C110.756 39.0127 107.898 38.4607 105.213 37.4024C102.853 36.4637 100.712 35.0476 98.9253 33.2429C97.2238 31.5104 95.8875 29.4546 94.9953 27.1965C94.0825 24.8763 93.6226 22.4027 93.6398 19.9094C93.5683 16.3465 94.4081 12.8244 96.0795 9.67689C97.6558 6.76513 100.011 4.34949 102.883 2.70044C105.984 0.963203 109.493 0.0887833 113.047 0.168032C115.453 0.128949 117.851 0.478601 120.147 1.20333C121.903 1.75767 123.594 2.50292 125.189 3.42603L122.099 10.5058C120.961 9.71811 119.755 9.03494 118.494 8.46466C116.867 7.73245 115.1 7.37081 113.318 7.40593C111.317 7.39879 109.354 7.95327 107.653 9.00598C105.905 10.0682 104.451 11.5517 103.425 13.3209C102.341 15.1962 101.787 17.3314 101.825 19.4972C101.775 21.73 102.278 23.9402 103.289 25.9315C104.233 27.7432 105.683 29.2421 107.463 30.2463C109.403 31.3132 111.592 31.8479 113.805 31.7963C115.678 31.8447 117.54 31.5107 119.28 30.8148C120.54 30.3158 121.712 29.6169 122.75 28.7446L126.001 35.466Z" fill="black"/>
<path d="M49.0742 0.25H47.5781L30.1122 38.6176H37.8638L41.1163 31.1753H54.3427L57.432 38.6176H66.5383L49.0742 0.25ZM43.8803 24.871L47.8924 15.62L51.7404 24.871H43.8803Z" fill="black"/>
</svg>
