<svg width="18" height="20" viewBox="0 0 18 20" fill="none" xmlns="http://www.w3.org/2000/svg">
<path d="M16.7637 15.3301V17.0435C16.7637 18.1959 15.8864 19.1304 14.804 19.1304H2.79952C1.71739 19.1304 0.839844 18.1962 0.839844 17.0435V4.26064C0.839844 3.10831 1.71705 2.17383 2.79952 2.17383H14.804C15.8861 2.17383 16.7637 3.10794 16.7637 4.26064V15.3301Z" stroke="white" stroke-linecap="round" stroke-linejoin="round"/>
<path d="M5.44922 0.869629V4.34789" stroke="white" stroke-linecap="round" stroke-linejoin="round"/>
<path d="M16.7637 6.52173H0.839844" stroke="white" stroke-linecap="round" stroke-linejoin="round"/>
<path d="M12.1523 0.869629V4.34789" stroke="white" stroke-linecap="round" stroke-linejoin="round"/>
<path d="M8.80045 12.4168C7.83338 12.4168 7.04688 11.5261 7.04688 10.4318C7.04688 9.33746 7.83338 8.44678 8.80045 8.44678C9.76752 8.44678 10.5544 9.33746 10.5544 10.4318C10.5544 11.5261 9.76752 12.4168 8.80045 12.4168V12.4168ZM8.80045 8.70947C7.97251 8.70947 7.29891 9.48208 7.29891 10.4318C7.29891 11.3815 7.97251 12.1541 8.80045 12.1541C9.62839 12.1541 10.3024 11.3815 10.3024 10.4318C10.3024 9.48208 9.62877 8.70947 8.80045 8.70947V8.70947Z" fill="white" stroke="white" stroke-width="0.5"/>
<path d="M11.478 15.6532H6.12258V15.0244C6.1203 14.9891 6.07278 13.9725 6.75627 13.2181C7.2227 12.703 7.91037 12.4419 8.80027 12.4419C9.69018 12.4419 10.3775 12.703 10.8443 13.2181C11.5278 13.9725 11.4802 14.9891 11.478 15.0319V15.6532ZM6.37499 15.3905H11.2259V15.0244C11.2267 15.0078 11.2685 14.0668 10.6591 13.3964C10.2421 12.9372 9.61681 12.7046 8.80027 12.7046C7.98374 12.7046 7.35841 12.9372 6.9414 13.3964C6.33242 14.0668 6.37385 15.0078 6.37461 15.0169V15.3901L6.37499 15.3905Z" fill="white" stroke="white" stroke-width="0.5"/>
</svg>
