<svg width="23" height="23" viewBox="0 0 23 23" fill="none" xmlns="http://www.w3.org/2000/svg">
<path d="M21.7461 12.8581C21.1041 12.5584 20.3761 12.8581 19.6914 13.6283C19.2205 14.1847 18.7496 14.7838 18.2788 15.3399C17.6368 16.153 16.9944 16.9231 16.3094 17.7362C16.1383 17.9503 15.7528 18.0786 15.4534 18.1643C14.4689 18.4213 13.3987 18.6353 12.3285 18.8064L11.8149 18.892C11.6008 18.9347 11.344 18.8064 11.2583 18.464C11.2156 18.2929 11.2156 18.2073 11.301 18.1216C11.3437 18.0359 11.5151 17.9505 11.7292 17.9076C12.7994 17.6935 13.8696 17.4795 14.897 17.2228L15.1538 17.1801C16.0956 16.9661 16.6523 16.2386 16.5238 15.3828C16.4381 14.6553 15.7534 14.2702 14.6832 14.3557C14.5975 14.3557 14.5121 14.3557 14.4264 14.3983H14.3407C12.0719 14.6124 9.63172 14.7834 7.32025 14.0133C7.02045 13.9276 6.67825 14.0133 6.37847 14.0989C5.69348 14.3557 5.00847 14.6124 4.28081 14.9121L3.72421 15.1261V14.7837C3.72421 14.3987 3.38171 14.0563 2.99652 14.0563H0.727697C0.342494 14.0563 0 14.3987 0 14.7837V21.5025C0 21.8875 0.342502 22.2299 0.727697 22.2299H2.99652C3.38172 22.2299 3.72421 21.8875 3.72421 21.5025V21.3314C3.76691 21.3314 3.80991 21.3741 3.85261 21.3741C3.93831 21.4168 4.02372 21.4168 4.06671 21.4168C4.70871 21.5452 5.35103 21.7165 5.99299 21.8449C7.19162 22.1016 8.39016 22.3583 9.58878 22.615C9.80288 22.6577 9.97399 22.7007 10.1881 22.7433C10.659 22.8717 11.1726 23.0001 11.6435 23.0001C11.7719 23.0001 11.9433 23.0001 12.0717 22.9574C13.4843 22.7007 14.8971 22.2726 16.2668 21.8875C16.6093 21.8019 16.9518 21.6735 17.2942 21.5878C17.594 21.5022 17.9362 21.2455 18.1503 20.9887C19.563 19.0631 20.9757 17.0945 22.1313 15.4685C22.2597 15.2545 22.4738 14.9551 22.5165 14.6127C22.6879 13.7996 22.3884 13.2005 21.7461 12.8581L21.7461 12.8581ZM3.29591 21.4596C3.29591 21.6307 3.16751 21.7593 2.99611 21.7593H0.727292C0.55619 21.7593 0.427492 21.631 0.427492 21.4596L0.42779 14.7409C0.42779 14.5699 0.55619 14.4412 0.72759 14.4412H2.99641C3.16751 14.4412 3.29621 14.5696 3.29621 14.7409L3.29591 21.4596ZM22.0886 14.4842C22.0459 14.6982 21.9175 14.955 21.7461 15.169C20.5902 16.8379 19.1775 18.7636 17.7651 20.6892C17.6367 20.9032 17.3799 21.0743 17.1658 21.1173C16.8233 21.2029 16.4808 21.3313 16.1383 21.417C14.7683 21.802 13.3986 22.2301 11.986 22.4868C11.4724 22.5725 10.873 22.4441 10.3165 22.2728C10.1024 22.2301 9.88826 22.1871 9.71717 22.1444C8.51855 21.8877 7.32 21.631 6.12138 21.3743C5.47938 21.2459 4.83707 21.0746 4.1951 20.9462C4.1524 20.9462 4.0667 20.9035 4.024 20.9035C3.9383 20.8608 3.8529 20.8608 3.7672 20.8179L3.7669 15.554L4.4946 15.2543C5.22229 14.9546 5.90726 14.6979 6.59226 14.4412C6.84906 14.3555 7.10586 14.3128 7.23426 14.3555C9.63142 15.1687 12.1144 14.9973 14.4689 14.7836H14.5546H14.7687C15.368 14.7409 16.053 14.8262 16.1387 15.4683C16.2244 16.1101 15.8389 16.6238 15.1112 16.7948L14.8544 16.8375C13.8269 17.0516 12.7567 17.3083 11.6865 17.5223C11.344 17.608 11.13 17.6933 11.0016 17.9074C10.8732 18.0784 10.8732 18.2924 10.9159 18.5921C11.0443 19.1912 11.5578 19.4479 11.986 19.3623L12.4997 19.2766C13.5271 19.0626 14.5973 18.8485 15.6675 18.6348C15.8386 18.5921 16.4379 18.4208 16.7377 18.0784C17.3797 17.2653 18.0647 16.4951 18.707 15.682C19.1779 15.1256 19.6488 14.5265 20.1197 13.9705C20.5049 13.4997 21.1042 13.0716 21.6608 13.3287C22.046 13.5 22.2171 13.8851 22.0887 14.4842L22.0886 14.4842Z" fill="white"/>
<path d="M16.9309 2.49028C16.9133 2.3875 16.8255 2.31898 16.7201 2.31898H14.0852V1.20556C14.0852 1.08565 13.9799 1 13.8745 1H10.7478C10.6248 1 10.537 1.10278 10.537 1.20556V2.33611H7.90219C7.77923 2.33611 7.69141 2.42176 7.69141 2.54166V8.99952C7.69141 9.11943 7.77923 9.20508 7.90219 9.20508H16.7376C16.8606 9.20508 16.9484 9.11943 16.9484 8.99952V2.54166C16.9484 2.52453 16.9484 2.5074 16.9309 2.49028ZM10.9586 2.33611V1.41111H13.6461V2.33611H10.9586ZM11.749 7.16666H12.8732C12.9962 7.16666 13.084 7.08101 13.084 6.9611V6.53286C13.892 6.46434 15.4027 6.24166 16.5093 5.40231V8.79397H8.0951V5.40231C9.18416 6.24166 10.6948 6.46434 11.5204 6.53286V6.9611C11.5204 7.06388 11.6258 7.16666 11.7487 7.16666H11.749ZM12.6624 5.38518V6.73842H11.9598V5.38518H12.6624ZM15.5608 5.48796C14.8757 5.83055 14.0326 6.0361 13.084 6.10462V5.17962C13.084 5.05972 12.9962 4.97407 12.8732 4.97407H11.7139C11.6085 4.9912 11.5383 5.07684 11.5383 5.17962V6.10462C10.5897 6.0361 9.76414 5.83055 9.07908 5.48796C8.53455 5.21388 8.23594 4.93981 8.11298 4.83703V2.74722H16.5269V4.83703C16.4039 4.93981 16.1053 5.21388 15.5608 5.48796Z" fill="white"/>
<path fill-rule="evenodd" clip-rule="evenodd" d="M10.287 1.20556C10.287 0.972315 10.4793 0.75 10.7478 0.75H13.8745C14.0982 0.75 14.3352 0.928607 14.3352 1.20556V2.06898H16.7201C16.9172 2.06898 17.1013 2.19007 17.1628 2.38765C17.1989 2.45595 17.1986 2.51923 17.1984 2.53902C17.1984 2.54001 17.1984 2.54089 17.1984 2.54166V8.99952C17.1984 9.26339 16.9927 9.45508 16.7376 9.45508H7.90219C7.64712 9.45508 7.44141 9.26339 7.44141 8.99952V2.54166C7.44141 2.2778 7.64712 2.08611 7.90219 2.08611H10.287V1.20556ZM11.2086 1.66111V2.08611H13.3961V1.66111H11.2086ZM8.36298 2.99722V4.72121C8.51363 4.84787 8.77527 5.05513 9.1912 5.2645C9.77675 5.55728 10.4784 5.74821 11.2883 5.83181V5.17962C11.2883 4.95581 11.4459 4.76435 11.6738 4.72731L11.6937 4.72407H12.8732C13.1283 4.72407 13.334 4.91576 13.334 5.17962V5.83186C14.1476 5.74821 14.8635 5.55707 15.4486 5.2645C15.8646 5.05512 16.1262 4.84787 16.2769 4.72121V2.99722H8.36298ZM12.2098 5.63518V6.48842H12.4124V5.63518H12.2098ZM13.334 6.76006V6.9611C13.334 7.22496 13.1283 7.41666 12.8732 7.41666H11.749C11.6179 7.41666 11.5015 7.36245 11.4188 7.28605C11.3379 7.21134 11.2704 7.09713 11.2704 6.9611V6.7605C10.508 6.68061 9.33232 6.47207 8.3451 5.87513V8.54397H16.2593V5.87201C15.2622 6.47007 14.0867 6.67966 13.334 6.76006Z" fill="white"/>
</svg>
