<svg width="21" height="16" viewBox="0 0 21 16" fill="none" xmlns="http://www.w3.org/2000/svg">
<path d="M19.7151 6.65022H18.951V4.00373C18.951 3.04363 18.1283 2.26262 17.117 2.26262H1.558C1.10344 2.26262 0.733587 1.91149 0.733587 1.47953C0.733587 1.04757 1.10344 0.696445 1.558 0.696445H16.7507C16.9533 0.696445 17.1175 0.540574 17.1175 0.348223C17.1175 0.155871 16.9533 0 16.7507 0H1.558C0.698654 0 0 0.663696 0 1.47953V14.2589C0 15.219 0.822665 16 1.83397 16H2.36887C2.57148 16 2.73567 15.8441 2.73567 15.6518C2.73567 15.4594 2.57148 15.3036 2.36887 15.3036H1.83397C1.22701 15.3036 0.733587 14.8351 0.733587 14.2589V2.7323C0.972876 2.87491 1.25539 2.95865 1.558 2.95865H17.117C17.724 2.95865 18.2174 3.42751 18.2174 4.00332V6.64981H15.008C14.5359 6.64981 14.1521 7.01461 14.1521 7.46274V10.7999C14.1521 11.248 14.5364 11.6124 15.0084 11.6124H18.2178V14.2589C18.2178 14.8347 17.7244 15.3036 17.1175 15.3036H10.6833C10.4807 15.3036 10.3165 15.4594 10.3165 15.6518C10.3165 15.8441 10.4807 16 10.6833 16H17.1175C18.1288 16 18.9514 15.219 18.9514 14.2589V11.6124H19.7156C20.1876 11.6124 20.5714 11.248 20.5714 10.7999V7.46274C20.5714 7.01461 20.1872 6.65022 19.7156 6.65022H19.7151ZM19.8374 10.7999C19.8374 10.8641 19.7824 10.916 19.7151 10.916H15.008C14.9407 10.916 14.8857 10.8641 14.8857 10.7999V7.46274C14.8857 7.39849 14.9407 7.34667 15.008 7.34667H19.7151C19.7824 7.34667 19.8374 7.39849 19.8374 7.46274V10.7999ZM16.0931 7.96311C15.8904 7.96311 15.7263 8.11898 15.7263 8.31133V9.95088C15.7263 10.1432 15.8904 10.2991 16.0931 10.2991C16.2957 10.2991 16.4599 10.1432 16.4599 9.95088V8.31133C16.4599 8.11898 16.2957 7.96311 16.0931 7.96311ZM16.7507 1.13131H1.83397C1.63136 1.13131 1.46717 1.28718 1.46717 1.47953C1.46717 1.67188 1.63136 1.82775 1.83397 1.82775H16.7507C16.9533 1.82775 17.1175 1.67188 17.1175 1.47953C17.1175 1.28718 16.9537 1.13131 16.7507 1.13131Z" fill="white"/>
<path d="M9.32369 8.5H4.21484V8.75811H6.14926C7.04827 8.75811 7.78608 9.4327 7.82328 10.2774H4.22105V10.5355H7.81088C7.71167 11.3216 7.01107 11.9375 6.14926 11.9375H4.62405V12.2777L7.42647 15.7504L7.64348 15.5921L4.89685 12.1898H6.14926C6.67006 12.1898 7.15987 11.9962 7.53187 11.6501C7.85428 11.345 8.04648 10.9579 8.09608 10.5355H9.33609V10.2774H8.10228C8.08368 9.80813 7.88528 9.37404 7.53187 9.03968C7.41407 8.92822 7.28387 8.83437 7.14127 8.75811H9.32989V8.5H9.32369Z" fill="white" stroke="white" stroke-width="0.5" stroke-miterlimit="10"/>
</svg>
