<svg width="19" height="20" viewBox="0 0 19 20" fill="none" xmlns="http://www.w3.org/2000/svg">
<path d="M1.17073 14.0585C1.15296 14.0389 1.13098 14.0234 1.1062 14.0141C1.0557 13.994 0.99958 13.994 0.949076 14.0141C0.924759 14.0234 0.902313 14.0389 0.884543 14.0585C0.846197 14.0954 0.824219 14.1459 0.824219 14.1992C0.824219 14.2525 0.84573 14.3035 0.884543 14.3399C0.902313 14.3596 0.924291 14.3745 0.949076 14.3843C0.973393 14.3956 0.999112 14.4012 1.02577 14.4002C1.05336 14.4007 1.08095 14.3951 1.1062 14.3843C1.13098 14.375 1.15296 14.3596 1.17073 14.3399C1.24602 14.2609 1.24602 14.137 1.17073 14.0585Z" fill="white" stroke="white" stroke-width="0.5"/>
<path d="M12.4768 8.71497C12.4768 8.42467 12.3618 8.1456 12.1565 7.93991C11.9512 7.73423 11.673 7.6183 11.3821 7.61736H10.9378C10.8163 7.08632 10.4585 6.63989 9.96611 6.40569C9.82396 6.35194 9.67852 6.30706 9.53075 6.27153C9.53075 6.27153 9.49528 6.24956 9.10714 6.21871V6.60717C9.31571 6.624 9.28992 6.61512 9.53028 6.68617C9.62521 6.71188 9.71874 6.7418 9.81039 6.77686C10.156 6.94562 10.416 7.24947 10.5282 7.61689H7.73272C7.62142 7.61689 7.53164 7.70712 7.53164 7.81837C7.53164 7.92963 7.62189 8.01938 7.73272 8.01938H11.3812C11.5649 8.02032 11.7412 8.09418 11.8712 8.2246C12.0012 8.35502 12.0737 8.53172 12.0733 8.71544C12.0733 8.89915 12.0008 9.07538 11.8708 9.20487C11.7408 9.33436 11.5649 9.40775 11.3812 9.40728H9.32827C9.21697 9.40728 9.12719 9.4975 9.12719 9.60829C9.12719 9.71908 9.21744 9.8093 9.32827 9.8093H10.7611C10.9449 9.8093 11.1207 9.88223 11.2507 10.0122C11.3802 10.1421 11.4532 10.3179 11.4536 10.5016C11.4536 10.6853 11.3807 10.8611 11.2507 10.9911C11.1212 11.1215 10.9449 11.1939 10.7611 11.1939H9.04722C8.93733 11.1953 8.84895 11.2851 8.84895 11.3949C8.84895 11.5048 8.93733 11.5946 9.04722 11.596H10.314C10.4983 11.5969 10.6746 11.6703 10.8041 11.8012C10.9336 11.9316 11.0066 12.1083 11.0061 12.2925C11.0066 12.4762 10.9336 12.6524 10.8036 12.7814C10.6732 12.9109 10.4973 12.9834 10.314 12.9839H8.85924C8.74794 12.9839 8.65816 13.0741 8.65816 13.1849C8.65816 13.2957 8.74841 13.3859 8.85924 13.3859H9.64158C9.82489 13.3859 10.0012 13.4588 10.1307 13.5888C10.2607 13.7187 10.3337 13.8945 10.3337 14.0782C10.3351 14.2624 10.2626 14.4395 10.1326 14.5704C10.0026 14.7013 9.82583 14.7747 9.64158 14.7742H6.72965C6.2176 14.7742 5.71583 14.6317 5.28047 14.3619L4.92273 14.1404C4.77216 14.0469 4.59867 13.9978 4.42143 13.9978H3.76208V8.81547H4.59493C4.77964 8.81547 4.95687 8.74021 5.08547 8.60745C5.38335 8.29939 6.12033 7.54771 6.53091 7.22329C6.92076 6.91144 7.37924 6.70063 7.86632 6.60686C7.97285 6.58635 8.08075 6.57144 8.18959 6.5623C8.18959 6.5623 7.9372 6.55061 8.10461 6.54827V6.15747C8.01436 6.15747 8.27984 6.16074 8.18959 6.16822C8.08097 6.17581 7.9731 6.18849 7.86632 6.20614C7.28903 6.30152 6.74338 6.54198 6.28166 6.90728C5.76306 7.35558 5.26738 7.82959 4.79647 8.32791C4.74363 8.38213 4.67115 8.41299 4.59539 8.41299H3.75553C3.72139 8.10773 3.46373 7.8768 3.1565 7.87587H0.201081C0.147771 7.87587 0.0963316 7.89691 0.0589213 7.93477C0.0210433 7.97264 0 8.02359 0 8.07688V14.7354C0 14.7887 0.0210433 14.8397 0.0589213 14.8776C0.0963316 14.9154 0.147771 14.9365 0.201081 14.9365H3.15697C3.4642 14.9355 3.72186 14.7046 3.756 14.3993H4.42237C4.52431 14.3993 4.62485 14.4279 4.71183 14.4816L5.06957 14.7032C5.56853 15.0122 6.14371 15.1758 6.73059 15.1758H9.64252C9.93385 15.1758 10.213 15.0599 10.4183 14.8542C10.6236 14.648 10.7386 14.3685 10.7372 14.0777C10.7372 13.8197 10.646 13.5701 10.4791 13.3733C10.7438 13.333 10.9851 13.197 11.1562 12.9913C11.3274 12.7856 11.4176 12.5239 11.4092 12.2565C11.4008 11.9891 11.2947 11.7339 11.1109 11.5389C11.2708 11.4852 11.4162 11.3945 11.5355 11.2753C11.7403 11.0696 11.8553 10.7914 11.8563 10.5016C11.8563 10.2398 11.7627 9.98694 11.5916 9.7892C11.8044 9.7462 12.0008 9.64195 12.1551 9.48909C12.3604 9.28341 12.4759 9.0048 12.4759 8.7145L12.4768 8.71497ZM3.36085 14.3325C3.36085 14.4447 3.26966 14.5358 3.15743 14.5358H0.402629V8.27929H3.15743C3.26966 8.27929 3.36038 8.37045 3.36085 8.48264V14.3325Z" fill="white" stroke="white" stroke-width="0.5"/>
<path d="M10.0044 15V20H8.50391V15" stroke="white" stroke-linecap="round" stroke-linejoin="round"/>
<path d="M8.25781 0.210327H18.36L15.2129 4.00333L18.36 7.82439H8.25781" stroke="white" stroke-linecap="round" stroke-linejoin="round"/>
<path d="M10.2852 0.357178L10.2852 6.74239" stroke="white" stroke-linecap="round" stroke-linejoin="round"/>
<path d="M8.21484 0.357178L8.21484 6.76347" stroke="white" stroke-linecap="round" stroke-linejoin="round"/>
</svg>
